<?xml version="1.0" encoding="UTF-8"?>
<!DOCTYPE svg PUBLIC "-//W3C//DTD SVG 1.1//EN" "http://www.w3.org/Graphics/SVG/1.1/DTD/svg11.dtd">
<!-- Creator: CorelDRAW -->
<svg xmlns="http://www.w3.org/2000/svg" xml:space="preserve" width="52.1002mm" height="26.8327mm" version="1.1" style="shape-rendering:geometricPrecision; text-rendering:geometricPrecision; image-rendering:optimizeQuality; fill-rule:evenodd; clip-rule:evenodd"
viewBox="0 0 397.03 204.48"
 xmlns:xlink="http://www.w3.org/1999/xlink"
 xmlns:xodm="http://www.corel.com/coreldraw/odm/2003">
 <defs>
  <style type="text/css">
   <![CDATA[
    .fil0 {fill:#EA5E20}
   ]]>
  </style>
 </defs>
 <g id="Layer_x0020_1">
  <metadata id="CorelCorpID_0Corel-Layer"/>
  <path class="fil0" d="M157.73 27.56c-0.17,2.05 18.79,74.29 20.15,80.27 2.22,8.88 4.95,17.76 6.83,26.81l28.18 0c1.37,-3.76 2.39,-9.05 3.42,-13.15 1.2,-4.44 2.22,-8.88 3.42,-13.49l13.49 -53.45c1.2,-4.61 2.22,-8.88 3.42,-13.49 0.68,-2.56 3.24,-11.61 3.07,-13.49 0.68,0.85 0.51,2.22 0.51,3.24 0,1.2 0,2.22 0,3.25 0,2.39 0,4.61 0,6.83 0,10.08 -0.34,90.86 0,93.76 1.71,0.34 23.91,0.34 26.13,0l0 -134.41 -41.33 0 -0.17 1.2 -26.13 100.93 -26.47 -101.45c-0.17,-0.68 0.68,-0.85 -2.05,-0.68 -6.83,0.17 -36.72,-0.34 -39.11,0l0 134.41c2.22,0.34 24.42,0.34 26.13,0 0.34,-2.73 0,-84.88 0,-94.1l0 -9.91c0,-1.02 -0.17,-2.22 0.51,-3.07zm-95.3 31.25l-34.16 0 0 -35.18c2.39,-0.34 22.37,-0.17 26.64,-0.17 9.05,0 16.57,-0.34 21.69,4.95 7.69,8.03 7.34,31.6 -14.18,30.4zm9.22 -58.24c-0.34,-0.17 0,0 -0.68,-0.17l-3.42 -0.17c-10.93,-0.34 -66.09,-0.34 -67.29,0.17 -0.34,2.9 0,62.68 0,67.29 0,7.51 -0.68,64.9 0.17,66.95 1.54,0.51 25.62,0.51 27.67,0.17 0.17,-4.44 -0.34,-50.04 0.34,-52.43 2.05,-0.17 21.35,0 25.28,0 8.2,0 16.05,0.34 19.98,5.64 5.98,8.37 3.07,34.16 4.1,46.62l28.01 0c0.68,-4.27 -0.34,-33.99 -0.85,-39.96 -0.51,-8.88 -2.73,-16.22 -9.56,-21.18 -2.05,-1.37 -4.61,-2.22 -6.32,-3.42 4.1,-1.71 7.34,-3.07 10.08,-5.81 2.56,-2.56 4.95,-5.64 6.49,-9.39 3.42,-8.2 3.93,-17.93 2.05,-27.5 -2.73,-13.66 -10.76,-21.01 -22.71,-24.59 -2.73,-0.85 -10.25,-2.39 -13.32,-2.22zm-71.05 202.55c1.19,0 2.39,0 3.59,0 1.71,0 1.88,0.34 2.22,-1.2 0.34,-1.88 0.85,-4.1 1.19,-5.81 0.85,-3.93 1.71,-7.86 2.56,-11.78 0.85,-3.76 1.54,-8.03 2.39,-11.78 0.85,-3.93 1.88,-8.03 2.56,-11.78l-5.81 0.17c-1.54,6.83 -3.07,14 -4.44,21.18 -0.68,2.56 -4.44,19.64 -4.27,21.01zm197.09 -37.23l14.18 0.17 0 37.06 5.81 0 0 -37.23 14.35 -0.17 -0.17 -4.95 -34.16 0 0 5.12zm136.29 21.86c-0.68,1.02 -1.02,3.59 -1.71,4.95 -5.29,10.76 -24.08,8.88 -24.42,-9.22 -0.17,-8.54 2.22,-15.54 8.71,-17.93 3.59,-1.37 8.37,-1.2 11.27,0.34 3.07,1.37 4.44,3.93 5.64,7.69l5.47 -0.17c0.34,-4.78 -4.44,-9.56 -7.17,-11.27 -9.22,-5.64 -30.74,-3.42 -29.72,21.52 1.2,29.2 36.72,24.59 37.4,3.93l-5.47 0.17zm32.28 -4.44l21.86 0.17 0 19.64 5.64 0 0 -42.35 -5.64 0.17 0 17.25 -22.03 0 0 -17.42 -5.81 0.17 0.17 42.18 5.64 0 0.17 -19.81zm-109.13 -17.25l25.11 -0.17 0 -5.12 -30.91 0.17c0,4.78 -0.34,39.96 0.17,42.18l31.25 0 -0.17 -5.12 -25.62 0 0 -14.18 23.4 -0.17 0 -4.78 -23.4 0 0.17 -12.81zm-77.54 14.35c-1.71,8.37 -6.32,16.22 -14,18.27 -4.61,1.2 -10.08,0.51 -13.15,-2.05 -3.07,-2.56 -3.59,-8.03 -3.07,-12.81 1.2,-8.71 6.66,-16.22 14.18,-18.44 11.1,-3.07 18.27,3.93 16.05,15.03zm6.15 -2.39c2.39,-14.86 -10.08,-21.35 -24.08,-17.25 -17.59,4.95 -24.59,33.47 -12.3,40.99 4.61,2.9 12.13,3.59 17.76,1.54 11.61,-4.1 16.91,-13.66 18.62,-25.28zm-114.09 -17.25l-5.47 0 -7.34 33.99 -14.01 -33.99 -6.83 0 -8.88 42.35 5.46 -0.17c1.02,-4.44 6.49,-32.28 7.34,-33.64l3.59 8.37c3.24,7.86 8.03,18.1 10.59,25.45l6.49 0 9.05 -42.35zm56.19 0l-5.29 0.17 -7.34 33.64c-1.02,-1.2 -9.91,-23.57 -10.59,-25.45 -0.68,-1.71 -2.73,-7 -3.59,-8.37l-6.83 0.17c-0.34,3.24 -1.54,7.34 -2.22,10.59 -1.02,5.47 -6.66,29.55 -6.49,31.6 1.54,0 4.27,0.34 5.12,-0.17 0.68,-0.85 6.49,-29.72 7.34,-33.47 0.85,0.68 0.85,1.2 1.37,2.22l13.15 31.42 6.49 0 8.88 -42.35zm188.55 -137.31c11.44,-0.17 24.25,-0.34 35.69,0 11.27,0.51 17.42,6.49 17.42,17.93 -0.17,11.96 -6.32,16.91 -17.93,17.59 -11.1,0.51 -23.91,0.17 -35.18,0l0 -35.52zm61.31 46.79c0.17,-0.34 -0.17,0 0.34,-0.34 0.34,-0.17 0.34,-0.17 0.68,-0.34 0.17,-0.17 0.68,-0.17 1.02,-0.34 11.44,-4.44 16.91,-16.22 17.25,-28.86 0.51,-17.08 -4.61,-27.67 -15.37,-34.16 -11.44,-6.83 -28.18,-5.81 -43.38,-5.81 -16.4,0 -33.13,-0.34 -49.53,0l0 134.24 27.67 0 0 -52.26c8.54,-0.17 17.08,0 25.62,0 22.2,0 23.23,5.47 23.91,27.33l0.34 24.93 28.01 0c0.51,-5.29 -0.34,-33.13 -0.85,-39.62 -0.51,-8.71 -2.56,-16.39 -9.22,-21.18 -2.39,-1.88 -3.93,-2.05 -6.49,-3.59z"/>
 </g>
</svg>
